<svg id="folderImage" xmlns="http://www.w3.org/2000/svg" width="360" height="286.384" viewBox="0 0 360 286.384">
  <path id="SVGCleanerId_0" d="M137.076,102.772H46.63a12.45,12.45,0,0,1-11.137-6.883l-9.01-18.019,9.01-18.019A12.45,12.45,0,0,1,46.63,52.966h90.447a12.45,12.45,0,0,1,11.137,6.883l9.01,18.019-9.01,18.019A12.45,12.45,0,0,1,137.076,102.772Z" transform="translate(-7.806 -52.966)" fill="#ffc36e"/>
  <g id="Group_5" data-name="Group 5" transform="translate(18.677)">
    <path id="SVGCleanerId_0_1_" d="M137.076,102.772H46.63a12.45,12.45,0,0,1-11.137-6.883l-9.01-18.019,9.01-18.019A12.45,12.45,0,0,1,46.63,52.966h90.447a12.45,12.45,0,0,1,11.137,6.883l9.01,18.019-9.01,18.019A12.45,12.45,0,0,1,137.076,102.772Z" transform="translate(-26.483 -52.966)" fill="#ffc36e"/>
  </g>
  <path id="Path_212" data-name="Path 212" d="M346.546,70.621H23.861a6.216,6.216,0,0,0-6.206,6.226v31.129h335.1V76.846A6.216,6.216,0,0,0,346.546,70.621Z" transform="translate(-5.204 -58.17)" fill="#e2e2ff"/>
  <rect id="Rectangle_19" data-name="Rectangle 19" width="335.097" height="12.451" transform="translate(12.451 37.354)" fill="#dad9ff"/>
  <path id="Path_213" data-name="Path 213" d="M347.586,88.276H152.8a6.2,6.2,0,0,0-5.551,3.441L139.983,106.3a12.41,12.41,0,0,1-11.1,6.883H38.707A12.409,12.409,0,0,1,27.6,106.3L20.336,91.717a6.2,6.2,0,0,0-5.551-3.441H12.414A12.432,12.432,0,0,0,0,100.727V337.306a12.432,12.432,0,0,0,12.414,12.451H347.586A12.432,12.432,0,0,0,360,337.306V100.727A12.432,12.432,0,0,0,347.586,88.276Z" transform="translate(0 -63.373)" fill="#ffda79"/>
  <path id="Path_214" data-name="Path 214" d="M346.546,436.175H23.861a6.216,6.216,0,0,1-6.206-6.226h0a6.216,6.216,0,0,1,6.206-6.226H346.546a6.216,6.216,0,0,1,6.206,6.226h0A6.216,6.216,0,0,1,346.546,436.175Z" transform="translate(-5.204 -162.243)" fill="#ffb142"/>
</svg>
