<svg xmlns="http://www.w3.org/2000/svg" xmlns:xlink="http://www.w3.org/1999/xlink" width="579" height="1060" viewBox="0 0 579 1060">
  <defs>
    <linearGradient id="linear-gradient" x1="0.5" y1="1" x2="0.5" gradientUnits="objectBoundingBox">
      <stop offset="0" stop-color="gray" stop-opacity="0.251"/>
      <stop offset="0.54" stop-color="gray" stop-opacity="0.122"/>
      <stop offset="1" stop-color="gray" stop-opacity="0.102"/>
    </linearGradient>
  </defs>
  <g id="ladyNew" transform="translate(-0.01 713.399)" opacity="0.5">
    <ellipse id="Ellipse_13" data-name="Ellipse 13" cx="133.398" cy="29.32" rx="133.398" ry="29.32" transform="translate(138.483 287.962)" fill="#6c63ff" opacity="0.1"/>
    <path id="Path_86" data-name="Path 86" d="M117.4,509.9c8.983,36.838,27.944,68.678,57.937,84.113,62.322,32.071,202.912,15.53,307.832-3.459,54.26-9.82,101.967-36.91,136.62-75.079Z" transform="translate(-98.856 -362.837)" fill="#6c63ff" opacity="0.1"/>
    <path id="Path_87" data-name="Path 87" d="M678.915,169.841H621.348a4.789,4.789,0,1,1,0-9.545H631.3a4.784,4.784,0,1,1,0-9.545h-7.108a4.789,4.789,0,1,1,0-9.545h30.044A81.7,81.7,0,0,0,630.8,135c-81.928-10.106-111.169-3.425-121.5,3.459a117.284,117.284,0,0,1-42.11,17.742c-50.532,10.022-145.082,22.082-230.761-3.857-42.587-12.914-74.236,8.894-93.2,45.31h545.7c-.713-10.584-2.847-20.359-6.738-28.91A5.1,5.1,0,0,1,678.915,169.841Z" transform="translate(-110.184 -196.163)" fill="#6c63ff" opacity="0.1"/>
    <path id="Path_88" data-name="Path 88" d="M457.614,392.651l-.747-.039-7.86-.444-75.073-4.222-8.108-.46L246.28,380.748l-33.5-1.887-5.306-.292-4.683-.236L107.734,373a234.131,234.131,0,0,0,2.246,64.265l79.986,2.807,6.339.225,1.123.039,37.927,1.319,2.049.067,4.374.152,38.269,1.348,5.244.185,18.276.646h.343l2.689.1,9.157.32h0l8.035.281,15.311.561h.32l1.364.045,1.449.056h.314l24.4.853,6.833.241h.286l3.29.118h.859l2.891.1,8.832.314h0l3.318.118,4.262.146h.157l5.845.208,16.906.6,4.655.157h.533l22.537.792,13.088.46,16.282.561,2.616.09,4.217.146,15.339.561,115.661,4.065a227.6,227.6,0,0,0,35.108-51.48ZM240.121,428.388a5.053,5.053,0,0,1-3.313-1.224h0a4.879,4.879,0,0,1-1.05-1.274,4.587,4.587,0,0,1,.213-4.9,5.742,5.742,0,0,1,.561-.663,5.053,5.053,0,0,1,3.6-1.488h9.949a4.789,4.789,0,1,1,0-9.545h-7.119a4.138,4.138,0,0,1-.46,0,4.778,4.778,0,1,1,.46-9.545h57.567a4.784,4.784,0,1,1,0,9.545h7.108a4.789,4.789,0,1,1,0,9.545h-9.96a4.784,4.784,0,1,1,0,9.545Z" transform="translate(-94.075 -302.801)" fill="#6c63ff" opacity="0.1"/>
    <path id="Path_89" data-name="Path 89" d="M673.869,251.11,276.82,260.391l-43.642,1.022-111.1,2.6c-6.738,16.586-11.162,35.338-13.211,54.776H664.228a219.021,219.021,0,0,0,8.012-34.917A160.58,160.58,0,0,0,673.869,251.11ZM220.882,293.382h-9.949a4.9,4.9,0,0,1,4.98,4.784v.292a4.767,4.767,0,0,1-2.212,3.689,5.092,5.092,0,0,1-2.757.809H153.366a4.789,4.789,0,1,1,0-9.573h9.949a4.784,4.784,0,1,1,0-9.545h-7.1a4.789,4.789,0,1,1,0-9.545h57.561a4.789,4.789,0,1,1,0,9.545h7.108a5.1,5.1,0,0,1,2.364.561,4.761,4.761,0,0,1,2.611,4.2A4.89,4.89,0,0,1,220.882,293.382Z" transform="translate(-95.115 -249.348)" fill="#6c63ff" opacity="0.1"/>
    <g id="Group_2" data-name="Group 2" transform="translate(310.091 118.998)" opacity="0.1">
      <path id="Path_90" data-name="Path 90" d="M643,585.634s14.564-34.5,41.761-47.3A57.737,57.737,0,0,0,711.4,513.475a92.646,92.646,0,0,0,6.676-16.125" transform="translate(-639.443 -476.331)" fill="none" stroke="#535461" stroke-miterlimit="10" stroke-width="2"/>
      <path id="Path_91" data-name="Path 91" d="M793.506,472.769C790.7,476.2,776,481.191,776,481.191s1.763-14.867,4.6-18.292a8.472,8.472,0,0,1,11.589-1.252,7.714,7.714,0,0,1,1.319,11.122Z" transform="translate(-697.769 -459.914)" fill="#6c63ff"/>
      <path id="Path_92" data-name="Path 92" d="M783.01,519.066c-4.318,1.392-19.46-2.072-19.46-2.072s9.887-11.561,14.205-12.953a8.321,8.321,0,0,1,10.443,4.986,7.861,7.861,0,0,1-5.188,10.039Z" transform="translate(-692.309 -479.075)" fill="#6c63ff"/>
      <path id="Path_93" data-name="Path 93" d="M737.311,576.068c-4.458-.893-15.721-11.229-15.721-11.229s14.6-5.182,19.09-4.29a7.939,7.939,0,0,1,6.406,9.371A8.265,8.265,0,0,1,737.311,576.068Z" transform="translate(-673.908 -504.001)" fill="#6c63ff"/>
      <path id="Path_94" data-name="Path 94" d="M689.042,611.164c-4.553-.152-17.461-8.517-17.461-8.517s13.475-7.479,18.04-7.3a7.92,7.92,0,1,1-.578,15.816Z" transform="translate(-651.977 -519.305)" fill="#6c63ff"/>
      <path id="Path_95" data-name="Path 95" d="M738.4,503.178c.561,4.34,10.443,15.917,10.443,15.917s6.49-13.6,5.912-17.967a8.171,8.171,0,0,0-9.23-6.85,7.99,7.99,0,0,0-7.125,8.9Z" transform="translate(-681.253 -474.955)" fill="#6c63ff"/>
      <path id="Path_96" data-name="Path 96" d="M683.539,543.287c1.9,3.975,14.918,12.189,14.918,12.189s1.965-14.851.056-18.826a8.388,8.388,0,0,0-10.937-3.88,7.8,7.8,0,0,0-4.037,10.516Z" transform="translate(-656.895 -491.54)" fill="#6c63ff"/>
      <path id="Path_97" data-name="Path 97" d="M636.926,591.965c1.179,4.228,12.566,14.441,12.566,14.441s4.542-14.317,3.369-18.528a8.287,8.287,0,0,0-10.106-5.615,7.9,7.9,0,0,0-5.828,9.7Z" transform="translate(-636.666 -513.441)" fill="#6c63ff"/>
      <path id="Path_98" data-name="Path 98" d="M793.506,472.769C790.7,476.2,776,481.191,776,481.191s1.763-14.867,4.6-18.292a8.472,8.472,0,0,1,11.589-1.252,7.714,7.714,0,0,1,1.319,11.122Z" transform="translate(-697.769 -459.914)" opacity="0.25"/>
      <path id="Path_99" data-name="Path 99" d="M783.01,519.066c-4.318,1.392-19.46-2.072-19.46-2.072s9.887-11.561,14.205-12.953a8.321,8.321,0,0,1,10.443,4.986,7.861,7.861,0,0,1-5.188,10.039Z" transform="translate(-692.309 -479.075)" opacity="0.25"/>
      <path id="Path_100" data-name="Path 100" d="M737.311,576.068c-4.458-.893-15.721-11.229-15.721-11.229s14.6-5.182,19.09-4.29a7.939,7.939,0,0,1,6.406,9.371A8.265,8.265,0,0,1,737.311,576.068Z" transform="translate(-673.908 -504.001)" opacity="0.25"/>
      <path id="Path_101" data-name="Path 101" d="M689.042,611.164c-4.553-.152-17.461-8.517-17.461-8.517s13.475-7.479,18.04-7.3a7.92,7.92,0,1,1-.578,15.816Z" transform="translate(-651.977 -519.305)" opacity="0.25"/>
      <path id="Path_102" data-name="Path 102" d="M738.4,503.178c.561,4.34,10.443,15.917,10.443,15.917s6.49-13.6,5.912-17.967a8.171,8.171,0,0,0-9.23-6.85,7.99,7.99,0,0,0-7.125,8.9Z" transform="translate(-681.253 -474.955)" opacity="0.25"/>
      <path id="Path_103" data-name="Path 103" d="M683.539,543.287c1.9,3.975,14.918,12.189,14.918,12.189s1.965-14.851.056-18.826a8.388,8.388,0,0,0-10.937-3.88,7.8,7.8,0,0,0-4.037,10.516Z" transform="translate(-656.895 -491.54)" opacity="0.25"/>
      <path id="Path_104" data-name="Path 104" d="M636.926,591.965c1.179,4.228,12.566,14.441,12.566,14.441s4.542-14.317,3.369-18.528a8.287,8.287,0,0,0-10.106-5.615,7.9,7.9,0,0,0-5.828,9.7Z" transform="translate(-636.666 -513.441)" opacity="0.25"/>
    </g>
    <g id="Group_3" data-name="Group 3" transform="translate(309.407 45.141)" opacity="0.1">
      <path id="Path_105" data-name="Path 105" d="M662.45,477.812s1.836-37.2,23.076-57.943a55.541,55.541,0,0,0,16.535-31.942,91.207,91.207,0,0,0,.741-17.338" transform="translate(-647.289 -346.885)" fill="none" stroke="#535461" stroke-miterlimit="10" stroke-width="2"/>
      <path id="Path_106" data-name="Path 106" d="M745.54,338.926c-1.488,4.132-13.61,13.531-13.61,13.531s-3.459-14.6-1.971-18.73a8.338,8.338,0,0,1,10.527-4.89,7.861,7.861,0,0,1,5.053,10.09Z" transform="translate(-676.731 -328.371)" fill="#6c63ff"/>
      <path id="Path_107" data-name="Path 107" d="M751.34,384.544c-3.588,2.689-19.09,4.245-19.09,4.245s5.345-14.037,8.933-16.748a8.473,8.473,0,0,1,11.572,1.376,7.726,7.726,0,0,1-1.415,11.128Z" transform="translate(-677.899 -346.786)" fill="#6c63ff"/>
      <path id="Path_108" data-name="Path 108" d="M725.487,452.669c-4.492.561-18.7-5.615-18.7-5.615s11.993-9.545,16.507-10.106a8.21,8.21,0,0,1,9.27,6.8,8,8,0,0,1-7.08,8.922Z" transform="translate(-666.733 -375.956)" fill="#6c63ff"/>
      <path id="Path_109" data-name="Path 109" d="M692.835,501.113c-4.351,1.308-19.415-2.47-19.415-2.47s10.146-11.353,14.491-12.661a8.31,8.31,0,0,1,10.331,5.2,7.86,7.86,0,0,1-5.407,9.932Z" transform="translate(-652.099 -397.322)" fill="#6c63ff"/>
      <path id="Path_110" data-name="Path 110" d="M701.954,385.92c2.049,3.93,15.345,11.69,15.345,11.69s1.437-14.9-.612-18.815a8.422,8.422,0,0,0-11.072-3.52,7.793,7.793,0,0,0-3.661,10.645Z" transform="translate(-664.233 -348.566)" fill="#6c63ff"/>
      <path id="Path_111" data-name="Path 111" d="M664.025,441.25c3.172,3.139,18.281,6.738,18.281,6.738s-3.268-14.632-6.44-17.776a8.495,8.495,0,0,0-11.662-.174,7.72,7.72,0,0,0-.18,11.212Z" transform="translate(-646.96 -371.977)" fill="#6c63ff"/>
      <path id="Path_112" data-name="Path 112" d="M636.88,502.027c2.572,3.61,16.844,9.612,16.844,9.612s-.651-14.952-3.223-18.568a8.456,8.456,0,0,0-11.459-2.066,7.737,7.737,0,0,0-2.162,11.021Z" transform="translate(-635.447 -399.083)" fill="#6c63ff"/>
    </g>
    <path id="Path_113" data-name="Path 113" d="M389.859,244.2l20.016,9.3s-34.917-7.931-45.366-6.607S330.5,279.87,330.5,279.87s-11.1,8.5-24.289,38.317q-4.8,10.859-8.983,23.131c-10.5,30.643-21.055,75.553-27.579,140.514q-1.011,9.957-1.875,20.537c-1.168,14.281-2.15,29.427-2.9,45.532q-.528,11.16-.9,22.969-.354,11.241-.561,23.077-.208,11.255-.258,22.969-.084,15.754.1,32.426.124,11.133.382,22.685v.932c1.173,52.436,3.9,96.887,7.664,134.542q.59,5.857,1.207,11.5,2.821,26.046,6.906,51.152c.472,2.918.96,5.783,1.449,8.579q1.724,9.809,3.543,18.74,1.5,7.336,3.054,14.078c.2.919.415,1.824.629,2.7q.758,3.243,1.533,6.323c18.04,72.432,40.144,90.158,48.971,94.455a20.84,20.84,0,0,0,2.852,1.121h.056a7.677,7.677,0,0,0,1.005.216c2.077,19.077-1.892,26.752-6.676,29.535a9.876,9.876,0,0,1-2.358,1h0a14.8,14.8,0,0,1-9.388-.906s-21.482,2.283-44.035,3.581c-1.684.108-3.4.189-5.109.284h0l-1.892.081a284.652,284.652,0,0,1-31.352.162h0a45.551,45.551,0,0,1-9.421-1.446c-17.052-5.31-12.1-31.764-6.872-52.287,4.492-17.645,2.246-49.018-5.1-100.859q-1.785-12.592-3.975-26.819c-8.079-52.693-7.608-131.434-5.71-198.1.247-8.809.522-17.389.808-25.671.348-10.16.707-19.875,1.05-28.981,1.533-40.6,6.5-84.349,11.791-119.545q1.123-7.62,2.3-14.659,3.264-20.517,7.557-39.952c.612-2.7,1.19-5.026,1.724-7.026l.483-1.851c.926-3.594,1.9-7.7,2.892-12.16,1.454-6.58,2.965-13.97,4.452-21.617,3.8-19.51,7.484-40.83,9.91-55.395,1.78-10.552,2.88-17.5,2.88-17.5a53.689,53.689,0,0,0-1.207-8.107C246,277.465,192.4,254.1,192.4,254.1l-26.86,4.661-53.417,9.241,58.325-21.2,9.034-3.283a63.214,63.214,0,0,1-6.507-2.189h0c-7.7-3-20.359-9.309-27.3-20.266-5.542-8.769-34.923-12.525-61.278-14.119V190.82l4.918,8.431,56.623,2.04L118.42,116.55l36.293,89.307c5.7,2.7,16.681,8.985,29.314,16.375,8.691,5.107,18.175,10.741,27.253,16.213,22.268,13.4,42.11,25.671,42.11,25.671-1.919-68.083-16.01-130.82-38.629-171.98L188.338,44.129l5.2-4.846c22.992,32.967,55.772,95.128,55.772,95.128s-.561-36.479-5.452-98.859h10.589c.124,3.2.286,6.377.477,9.552,4.144,68.014,6.21,148.188,6.21,148.188,3.576,58.218,13.2,8.606,13.2,8.606-.837-66.2,10.241-127.935,19.09-166.346H305.14c-5.413,26.549-3.61,45.937-3.61,45.937,17.967-32.237,32.228-43.1,41.992-45.937a17.692,17.692,0,0,1,10.87,0,10.974,10.974,0,0,1,4.065,2.256c-36.287,4.053-62.131,70.122-62.131,70.122-2.875,1.729-10.14,55.787-13.228,124.422-.455,10.093-.82,20.483-1.067,31.075-.825,35.426,1.022,49.842,3.4,54.76,1.752,3.607,3.79,2.094,5.272,0a20.773,20.773,0,0,0,2.049-3.824c5.648-22.766,27.1-48.639,46.635-68.473,4.127-4.188,8.169-8.107,11.959-11.66,13.159-12.518,23.074-39.3,26.725-72.2,6.373-56.232,18.326-54.044,18.326-54.044C382.363,133.79,383.205,211.87,383.205,211.87l46.45-23.631c-22.082,14.241-58.274,47.4-58.274,47.4l18.472,8.566Z" transform="translate(-84.38 -748.096)" fill="#dea3a2"/>
    <path id="Path_114" data-name="Path 114" d="M711.441,143.76l-12.111,2.555A88.706,88.706,0,0,1,711.441,143.76Z" transform="translate(-354.055 -202.271)" fill="#dea3a2"/>
    <path id="Path_115" data-name="Path 115" d="M424.866,731.584a35.927,35.927,0,0,0-24.221-3.026c-14,3.026-35.451,1.421-37.4,1.089Z" transform="translate(-206.667 -458.355)" opacity="0.1"/>
    <path id="Path_116" data-name="Path 116" d="M392.426,441.39s-3.4,53.743,2.65,64.338Z" transform="translate(-219.048 -332.793)" opacity="0.1"/>
    <path id="Path_117" data-name="Path 117" d="M370.78,556s4.368,50.341,7.389,60.177S370.78,556,370.78,556Z" transform="translate(-209.973 -383.054)" opacity="0.1"/>
    <path id="Path_118" data-name="Path 118" d="M352.227,335.56c-3.088,1.123-16.339,28.006-13.688,35.934S352.227,335.56,352.227,335.56Z" transform="translate(-195.681 -286.382)" opacity="0.1"/>
    <path id="Path_119" data-name="Path 119" d="M417.9,285.88c-1.437.657-7.6,16.131-6.367,20.707S417.9,285.88,417.9,285.88Z" transform="translate(-227.775 -264.596)" opacity="0.1"/>
    <path id="Path_120" data-name="Path 120" d="M320.86,446.62c1.527,15.609,2.358,25.827,1.387,38.314a147.576,147.576,0,0,0,.415,29.145Z" transform="translate(-188.081 -335.086)" opacity="0.1"/>
    <path id="Path_121" data-name="Path 121" d="M610.772,123c-1.864,2.128-2.493,5.053-2.583,7.905s.275,5.665.09,8.489c-.2,2.97-1.606,6.457-4.559,6.855Z" transform="translate(-312.126 -193.166)" opacity="0.1"/>
    <path id="Path_122" data-name="Path 122" d="M353,96.32a32.452,32.452,0,0,1,6.176,4.245,10.973,10.973,0,0,1,3.582,6.429c.14,1.061.067,2.15.3,3.189a10.106,10.106,0,0,0,2.105,3.863,52.854,52.854,0,0,0,5.21,5.766" transform="translate(-202.176 -181.466)" fill="none"/>
    <path id="Path_123" data-name="Path 123" d="M364.449,216.531a37.416,37.416,0,0,0-4.969-3.459,20.774,20.774,0,0,0-5.121-2.246c-2.74-.724-5.615-.623-8.422-.915s-5.772-1.078-7.7-3.161Z" transform="translate(-195.703 -229.894)" opacity="0.1"/>
    <path id="Path_124" data-name="Path 124" d="M185.82,162.31c3.369.09,6.816.208,9.792,1.741,1.522.78,2.841,1.9,4.329,2.729a13.076,13.076,0,0,0,6.311,1.645Z" transform="translate(-128.861 -210.405)" opacity="0.1"/>
    <path id="Path_125" data-name="Path 125" d="M261.435,186.689a1.858,1.858,0,0,0-2.4.561c-.6.691-.926,1.578-1.544,2.246-1.218,1.319-3.212,1.471-5.008,1.533Z" transform="translate(-158.094 -220.983)" opacity="0.1"/>
    <path id="Path_126" data-name="Path 126" d="M302.5,60.33l3.217,1.684a56.761,56.761,0,0,1,9.477,5.777Z" transform="translate(-180.03 -165.683)" opacity="0.1"/>
    <path id="Path_127" data-name="Path 127" d="M367.92,116.255c2.117-.5,3.93,1.752,4.312,3.9s-.062,4.391.561,6.474a11.956,11.956,0,0,0,3.167,4.75Z" transform="translate(-208.719 -190.178)" opacity="0.1"/>
    <path id="Path_128" data-name="Path 128" d="M429.1,123.31c1.92,5.738-2.156,12-.96,17.939.359,1.808,1.2,3.492,1.628,5.283,1.123,4.722-.8,9.753-3.891,13.475Z" transform="translate(-234.137 -193.302)" opacity="0.1"/>
    <path id="Path_129" data-name="Path 129" d="M486.464,531.5a22.9,22.9,0,0,0-4.014,2.858c-.247.2-.494.41-.736.629.112.264.23.561.359.82l.286-.561.129-.225.124-.213c.3-.505.511-.78.511-.78l3.88-2.807Q486.75,531.36,486.464,531.5Zm0,0a22.9,22.9,0,0,0-4.014,2.858c-.247.2-.494.41-.736.629.112.264.23.561.359.82l.286-.561.129-.225.124-.213c.3-.505.511-.78.511-.78l3.88-2.807Q486.75,531.36,486.464,531.5Zm126.419,97.565c1.123-3.571-12.914-8.22-17.737-9.691v-.118l-.2.051c-.837-.258-1.342-.4-1.342-.4s-2.15-1.566-4.823-3.459l-.152-.528-.421.124c-1.286-.91-2.656-1.87-3.93-2.757a.9.9,0,0,1,.326-.123l-.123-.679a1.511,1.511,0,0,0-.651.27l-.039-.27a1.417,1.417,0,0,0-.46.163c-1.252-.859-2.381-1.6-3.206-2.111s-2.122-1.477-3.767-2.746h0c-1.611-1.246-3.5-2.757-5.407-4.318l.213-.561.314-.814-.792.382-.067.034.163-.415-.8.382-.168.084c-.634-.522-1.258-1.039-1.881-1.544h0c.039,0,.09-.045.129-.073.241-.135.483-.258.707-.387l.921-.494,1.123-.618.219-.123c1.825-.994,2.908-1.595,2.908-1.595a46.163,46.163,0,0,0,16.378-15.586c5.525-8.781-.6-16.771-4.492-21.465-.039-.051-.084-.1-.118-.146a7.861,7.861,0,0,0,.775-.275h0a4.733,4.733,0,0,0,2.97-4.149,4.262,4.262,0,0,0-.219-1.735c-.662-2.01-2.319-7.754-.3-9.938a2.684,2.684,0,0,1,1.9-.842c3.739-.253,9.3-.674,12.526-1.875a6.177,6.177,0,0,0,1.836-.994,1.774,1.774,0,0,0,.73-1.381c0-2.016-.719-5.053-2.65-6.378a2.093,2.093,0,0,0-.37-.213.187.187,0,0,0-.056-.034c-.966-.634-2.538-1.005-5.053-.943a48.965,48.965,0,0,1-13.34-1.606l-.247.241-.561-.522-.455-.438-9.376-9.045-2.077,2.072-.988-.96-2.044-1.982-.123-.118-3.672-3.56c-.853-7.17-2.319-14.126-4.8-18.837a12.7,12.7,0,0,0-3.975-4.806l-4.419-4.273-.326-.32c.062-.056.123-.107.191-.174h0a3.014,3.014,0,0,0,.281-.32,4.59,4.59,0,0,0,.657-1.033,4.643,4.643,0,0,0-.994-5.3l-.123-.123a4.845,4.845,0,0,0-6.446-.23,2.206,2.206,0,0,0-.326.281h0l-.174.185-1.28-1.246a5.053,5.053,0,0,0-7.069.056l-6.451,6.44a49.049,49.049,0,0,0-1.915-5.053c-1.808-3.8-8.1-6.968-14.239-9.247h0c-2.981-1.123-5.935-2.01-8.31-2.673h0c-1.443-.4-2.678-.719-3.577-.938h0l-.309-.079h0l-1.218-.286.342-.387.286-.309.449-.494.331-.359c.393.264.786.511,1.2.741h0a29.1,29.1,0,0,0,38.376-8.175c.174-.241.342-.488.494-.736a4.741,4.741,0,0,0,.32-.488,2.667,2.667,0,0,0,.146-.236c.118-.185.23-.371.342-.561l.6-.073c2.055-.269,4.127-.825,5.295-2.442a3.367,3.367,0,0,0,.348-.561h0a5.172,5.172,0,0,0,.213-.477h0a5.671,5.671,0,0,0,.2-.618h0a18.425,18.425,0,0,0,.432-2.549,5.484,5.484,0,0,1,.1-.735h0l.1-.562.067.062a19.207,19.207,0,0,1,1.684,1.684,1.4,1.4,0,0,1,.124.135v-.359h0v-.264c0-2.442,4.941-2.993,6.547-4.492a1.274,1.274,0,0,0,.421-1.437c.292,0-.09-1.516-.258-2.588-.09-.561-.118-1.005.028-1.061l.253-.118c.842-.455.443-1.168.371-1.937a1.493,1.493,0,0,1,.135-.853,1.509,1.509,0,0,1,.4-.522c1.016-.9-1.578-1.437-.314-1.976l-1.684-5.053a14.333,14.333,0,0,0-1.084-2.673,7.554,7.554,0,0,0-.915-1.263,17.865,17.865,0,0,0-6.446-9.247c-1.926-1.4-4.11-2.42-6.013-3.846-4.727-3.537-7.243-9.169-10.982-13.705a19.392,19.392,0,0,0-6.85-5.34,10.134,10.134,0,0,0-8.107-.46,4.737,4.737,0,0,0-.494.219c-3.84,1.864-5.665,6.283-9.124,8.77-4.84,3.487-11.487,2.409-17.473,1.8a84.992,84.992,0,0,0-18.584.18,4.665,4.665,0,0,0-2.6.791,3.988,3.988,0,0,0-1.073,2.864v1.3c-.045,4.2,1.752,8.326,1.892,12.5a10.764,10.764,0,0,1-.062,1.2c-.561,5.165-4.351,9.545-8.854,12.251-3.874,2.347-9.034,4.823-8.815,9.287v.2a4.742,4.742,0,0,0,0,.488,6.365,6.365,0,0,0,.483,2.083c-4.391.028-7.86-.168-7.86-.168a24.609,24.609,0,0,0-13.228,1.858,23.228,23.228,0,0,0-9.859,8.355,31.389,31.389,0,0,0-3.139,5.968s-4.643,22.374-9.517,28.309-5.345,14.39-5.345,14.39a72.122,72.122,0,0,1-2.33,7.3c-.831,2.139-1.808,4.138-2.779,5.008-2.555,2.279-1.162,5.7-1.162,5.7s-3.015,2.97-2.807,4.795-1.623,5.94-1.623,5.94-1.864,4.34-.932,6.4c.561,1.241-.831,4.4-2.016,6.709l-1-.09a56.323,56.323,0,0,0-3.071,8.029,14.458,14.458,0,0,0-.651,4.3c.236,4.11-2.807,11.19-2.807,11.19a44.819,44.819,0,0,0-1.959,12.184v.314c-.118,7.86,1.931,17.826,11.094,24.7a36.041,36.041,0,0,0,11.409,5.575c1.286.4,2.644.747,4.076,1.061l3.24.691a80.416,80.416,0,0,0,14.531,5.834,38.085,38.085,0,0,0,7.54,1.381h0a37.987,37.987,0,0,0,12.728-1.123c.562.079,1.089.146,1.611.213l.477.067h.079c8.225,1.072,13.879,1.533,16.625,1.718l-.034.14h0c-.561,2.757-.91,4.823-.91,4.823l.5.6c-.034.185-.051.3-.051.3l7.423,9.225a3.774,3.774,0,0,0,1.123-.326,10.966,10.966,0,0,0,3.863-3,4.219,4.219,0,0,0,1.241.152H477a7.857,7.857,0,0,0,1.92-.32s1.325-.96,3.116-2.145l.2.32h0l1.19-.769h0l1.028-.668,2.6-1.684.045-.079.129-.253c.219-.112.432-.219.64-.314.337-.168.668-.309.971-.438a5.865,5.865,0,0,1,1.724-.466c1.241-.079,3.285-1.056,5.233-2.162l.292.292a3.931,3.931,0,0,0,.674-.853l.415-.253h0c.326-.2.64-.4.938-.562,1.684-1.044,2.892-1.915,2.892-1.915s21.049-2.134,29.005-3.93l-.034.337a2.176,2.176,0,0,1-.051.488c-.73-.039-1.4-.056-1.993-.062h0a16.38,16.38,0,0,0-1.785.051,2.694,2.694,0,0,0-1.443.511c-1.645,1.353.977,4.739.977,4.739l.107.034c2.56.82,50.649,16.2,55.394,16.844,2,.281,7.518,0,13.57-.741h.045c7.518-.91,15.85-2.482,19.286-4.458a4.777,4.777,0,0,0,1.241-.96,1.382,1.382,0,0,0,.118-.152h0C617.453,632.911,615.033,630.536,612.882,629.065ZM543.727,528.2l-1.359,1.37-1.465-3.223h0l-.713-1.566,2.908,2.807Zm-68.689,49.92h-1.527c.421-2.246.7-3.734.7-3.734s2.156-10.219,3.543-19.09A67.195,67.195,0,0,0,478.878,544a15.72,15.72,0,0,1,.612-5.615,17.086,17.086,0,0,1,.724-2.038c.135-.32.275-.623.41-.9l.966-.8c.051.112.09.23.146.348.112.264.23.561.359.82l.079.163h0c2.358,5.053,7.248,12.027,11.858,18.1,5.508,7.243,10.623,13.222,10.623,13.222s1,1.123,2.572,2.852c-5.738,2.094-11.162,4.116-11.162,4.116l-17.31,4.43a13.174,13.174,0,0,0-3.717-.584Zm71.064-40.3-.236-.522h0l-1.252-2.734-.747-1.639.82.792.438.427a1.5,1.5,0,0,0,.2.4,3.6,3.6,0,0,1,.6,1.3A7.709,7.709,0,0,1,546.1,537.822ZM486.464,531.5a22.9,22.9,0,0,0-4.014,2.858c-.247.2-.494.41-.736.629.112.264.23.561.359.82l.286-.561.129-.225.124-.213c.3-.505.511-.78.511-.78l3.88-2.807Q486.75,531.36,486.464,531.5Zm0,0a22.9,22.9,0,0,0-4.014,2.858c-.247.2-.494.41-.736.629.112.264.23.561.359.82l.286-.561.129-.225.124-.213c.3-.505.511-.78.511-.78l3.88-2.807Q486.75,531.36,486.464,531.5Z" transform="translate(-214.122 -311.088)" fill="url(#linear-gradient)"/>
    <path id="Path_130" data-name="Path 130" d="M721.385,805.838s8.422,3.863,4.991,7.95S697.742,820.6,693,819.913s-54.265-16.8-54.265-16.8-3.633-4.767.455-5.222,21.336,1.813,21.336,1.813l23.615,1.364Z" transform="translate(-326.831 -489.107)" fill="#535184"/>
    <path id="Path_131" data-name="Path 131" d="M556.24,619.364l11.066,24.345,14.811-14.474L571.22,611.7Z" transform="translate(-243.928 -387.998)" fill="#ffb9b9"/>
    <path id="Path_132" data-name="Path 132" d="M582.118,629.234l-11.2,10.943-3.616,3.532-2.162-4.744-6.187-13.615-2.717-5.985,3.891-1.993L571.22,611.7l4.149,6.676L578.244,623Z" transform="translate(-243.928 -387.998)" opacity="0.05"/>
    <path id="Path_133" data-name="Path 133" d="M575.374,488.139a90.34,90.34,0,0,0-10.892,10.213c-.213.236-.416.466-.612.7h0a53.643,53.643,0,0,0-5.143,6.928,35.444,35.444,0,0,0-2.908,5.783c-2.274,5.918-1.342,9.3-1.342,9.3a248.666,248.666,0,0,1-18.489-17.45c-9.466-10.067-17.259-21.066-8.074-22.739,11.342-2.061,20.774-9.09,26-13.778a53.644,53.644,0,0,0,4.43-4.385S599.893,468.392,575.374,488.139Z" transform="translate(-277.082 -342.142)" fill="#ffb9b9"/>
    <path id="Path_134" data-name="Path 134" d="M537.884,708.063l24.856-6.474s22.458-8.512,23.84-8.686,47-11.9,47-11.9l-21.628,48L560.7,746.545l-30.476-2.9Z" transform="translate(-279.894 -437.871)" fill="#ffb9b9"/>
    <path id="Path_135" data-name="Path 135" d="M537.884,708.063l24.856-6.474s22.458-8.512,23.84-8.686,47-11.9,47-11.9l-21.628,48L560.7,746.545l-30.476-2.9Z" transform="translate(-279.894 -437.871)" opacity="0.1"/>
    <path id="Path_136" data-name="Path 136" d="M485.077,502.277c-.674-3.739-1.954-12.066-.561-14.508,0,0-2.044-.225-9.545,1.123s-19.516.685-19.516.685-17.933-3.408-25.653,16.12c0,0-4.542,22.251-9.309,28.152s-5.222,14.306-5.222,14.306-2.5,9.988-5,12.257-1.123,5.676-1.123,5.676-2.953,2.953-2.723,4.772-1.589,5.9-1.589,5.9-1.808,4.334-.921,6.367-3.408,9.309-3.408,9.309l76.971,16.12L497.918,544.3l.455-26.787s-11.229-1.044-12.8-11.92C485.414,504.484,485.274,503.378,485.077,502.277Z" transform="translate(-223.011 -353.126)" fill="#787c9c"/>
    <path id="Path_137" data-name="Path 137" d="M435.589,624.756l-2.729,5s16.35,4.767,22.251,3.178S480.1,618.4,480.1,618.4Z" transform="translate(-237.198 -410.419)" fill="none"/>
    <path id="Path_138" data-name="Path 138" d="M435.589,624.756l-2.729,5s16.35,4.767,22.251,3.178S480.1,618.4,480.1,618.4Z" transform="translate(-237.198 -410.419)" opacity="0.1"/>
    <path id="Path_139" data-name="Path 139" d="M427.8,673.641s-15.665-3.178-18.163-3.178-14.761-1.123-14.761-1.123-3.857,8.175-3.633,12.257-2.746,11.134-2.746,11.134-12.032,35.647,24.064,43.592S470,745.177,470,745.177s11.791-33.373,14.076-37.915,1.589-7.72-9.079-6.811S427.8,673.641,427.8,673.641Z" transform="translate(-216.898 -432.758)" fill="#4c4c78"/>
    <path id="Path_140" data-name="Path 140" d="M700.16,804.81" transform="translate(-354.419 -492.166)" fill="none"/>
    <path id="Path_141" data-name="Path 141" d="M636.282,605.463l-.809.062c-.926.067-2.577.191-4.565.365-3.071.281-6.945.674-10.235,1.151-1.735.258-3.29.533-4.492.831-1.465.359-2.375.752-2.375,1.168,0,1.033-8.983-17.254-17.86-35.569-.286-.6-.561-1.2-.865-1.791s-.561-1.168-.853-1.746c-.488-1.022-.977-2.038-1.465-3.037-2.178-4.492-4.284-8.877-6.176-12.8l-1.033-2.134-5.671-11.83-1.174-2.448s1.437-1.724,3.3-3.868,4.144-4.7,5.845-6.4h.067c1.421.326,23.43,5.407,27.051,13.155a66.127,66.127,0,0,1,2.723,7.765c.275.9.561,1.858.842,2.847,1.123,4,2.364,8.568,3.5,13.02.225.87.444,1.74.663,2.588,2.426,9.623,4.357,18.051,4.357,18.051l5.867,13.144Z" transform="translate(-301.158 -370.52)" fill="#787c9c"/>
    <path id="Path_142" data-name="Path 142" d="M685.04,622.571s-5.053,17.293-7.3,23.98a14.47,14.47,0,0,1-1.022,2.583,20.852,20.852,0,0,1-9.208,4.222,10.271,10.271,0,0,1-2.032.09,7.341,7.341,0,0,1-2.892-.736c-5.452-2.729-9.2-9.876-9.2-9.876l1.757-3.217,2.729-4.991,5.806-10.606.606-1.123a29.7,29.7,0,0,0,1.084-3.88,16.745,16.745,0,0,0,.354-2.9,5.266,5.266,0,0,0-.758-3.268c-2.044-2.723-2.212-50.234,10.05-43.424S685.04,622.571,685.04,622.571Z" transform="translate(-333.908 -388.65)" fill="#ffb9b9"/>
    <path id="Path_143" data-name="Path 143" d="M641.4,681.5l.663-.561s12.257-.337,14.811,3.408,13.116,13.284,6.474,24.008a45.288,45.288,0,0,1-16.007,15.5S612.263,743.6,605.8,745.474s-29.628,4.256-29.628,4.256-7.3,5.278-10.219,5.446-11.409,6.474-11.409,6.474-9.365,3.066-2.381-9.545,7.86-15.159,7.86-15.159,6.642,3.751,10.387,0S596.969,718.9,596.969,718.9s14.6-11.723,17.512-13.228,21.285-11.92,21.285-11.92h0A15.323,15.323,0,0,1,641.4,681.5Z" transform="translate(-288.38 -437.839)" fill="#ffb9b9"/>
    <path id="Path_144" data-name="Path 144" d="M663.346,708.345a45.287,45.287,0,0,1-16.007,15.5s-1.96,1.123-5.053,2.807c-9.876,5.485-31.234,17.2-36.383,18.775l-.118.034c-6.468,1.87-29.628,4.256-29.628,4.256s-7.3,5.278-10.219,5.446-11.409,6.474-11.409,6.474-9.365,3.066-2.381-9.545,7.86-15.159,7.86-15.159,6.642,3.751,10.387,0,26.563-18.045,26.563-18.045,1.061-.853,2.678-2.139C604,713.292,612.388,706.717,614.5,705.6c.82-.438,2.892-1.589,5.446-3.009.511-.286,1.044-.59,1.589-.887,3.61-2.021,7.776-4.374,10.668-6.008l3.576-2.016v-.354a15.334,15.334,0,0,1,5.648-11.881l.663-.561s12.257-.337,14.811,3.408S669.988,697.621,663.346,708.345Z" transform="translate(-288.375 -437.817)" opacity="0.05"/>
    <path id="Path_145" data-name="Path 145" d="M531,792.8l7.3,9.174s6.738-.438,11.875-17.877-1.51-19.191-1.51-19.191-9.651,5.542-12.571,9.882S531,792.8,531,792.8Z" transform="translate(-280.236 -474.669)" fill="#535184"/>
    <path id="Path_146" data-name="Path 146" d="M530.23,792.3l7.17,8.714s6.131-.427,11.066-17-1.421-18.219-1.421-18.219-9.185,5.272-11.97,9.393S530.23,792.3,530.23,792.3Z" transform="translate(-279.898 -475.059)" fill="#535184"/>
    <path id="Path_147" data-name="Path 147" d="M530.23,792.3l7.17,8.714s6.131-.427,11.066-17-1.421-18.219-1.421-18.219-9.185,5.272-11.97,9.393S530.23,792.3,530.23,792.3Z" transform="translate(-279.898 -475.059)" opacity="0.15"/>
    <path id="Path_148" data-name="Path 148" d="M563.915,804.515l-.365-.561h0c1.241-.87,4.172-13.245,5.733-20.881l.668.135c-.561,2.875-3.245,15.581-5.16,19.932l3.318-2.184c.528-1.011,6.053-11.869,3.026-17.192l-.241-.432,3.779-.561.118.2c.275.455,6.676,11.173,2.667,15.064l-.472-.488c3.369-3.251-1.819-12.565-2.667-14.037l-2.364.348c2.807,6-3.032,17.018-3.285,17.5l-.045.073-4.711,3.1Z" transform="translate(-294.51 -482.501)" fill="#535184"/>
    <path id="Path_149" data-name="Path 149" d="M519,528.73c.679,1.022,1.359,9.7,3.93,9.876S519,528.73,519,528.73Z" transform="translate(-274.973 -371.095)" opacity="0.1"/>
    <path id="Path_150" data-name="Path 150" d="M492.31,498.1s7.3.848,7.832,7.49S492.31,498.1,492.31,498.1Z" transform="translate(-263.269 -357.662)" opacity="0.1"/>
    <path id="Path_151" data-name="Path 151" d="M422.86,643.06s2.892,8.854,9.365,10.561Z" transform="translate(-232.812 -421.233)" fill="none"/>
    <path id="Path_152" data-name="Path 152" d="M441.024,646.4s-.679,6.811,4.087,8.512S441.024,646.4,441.024,646.4Z" transform="translate(-240.763 -422.698)" fill="none"/>
    <path id="Path_153" data-name="Path 153" d="M423.773,716.76s-14.3,6.985-13.958,9.365S423.773,716.76,423.773,716.76Z" transform="translate(-227.089 -453.553)" opacity="0.1"/>
    <path id="Path_154" data-name="Path 154" d="M404.05,709.756s7.153-7.658,12.262-6.979Z" transform="translate(-224.563 -447.402)" opacity="0.1"/>
    <path id="Path_155" data-name="Path 155" d="M649.479,613s-2.044,14.3,1.022,15.322S649.479,613,649.479,613Z" transform="translate(-331.901 -408.05)" opacity="0.1"/>
    <path id="Path_156" data-name="Path 156" d="M433.62,649.5s-5.676,24.525-.455,26.793a74.294,74.294,0,0,0,16.237,6.94c17.113,5.053,35.552-2.9,42.941-19.14a20.377,20.377,0,0,0,1.684-5.053c1.359-8.63,3.857-22.026,3.857-22.026s5-24.064,4.542-30.2a17.186,17.186,0,0,1,2.953-10.668l32-23.16L528.529,548.7s-22.93-32.464-43.592-2.5-37.461,64.933-37.461,64.933S434.069,631.341,433.62,649.5Z" transform="translate(-236.363 -373.187)" fill="#ffb9b9"/>
    <path id="Path_157" data-name="Path 157" d="M587.614,571.772l-6.227,4.492-3.183-6.575c-5.57-11.538-10.668-22.133-12.863-26.759-2.274,5.918-1.342,9.3-1.342,9.3a248.655,248.655,0,0,1-18.489-17.45c8.113-4.66,15.94-2.145,21.953,1.83a8.076,8.076,0,0,1,.786.562,47.963,47.963,0,0,1,10.51,10.32Z" transform="translate(-286.599 -372.645)" opacity="0.1"/>
    <path id="Path_158" data-name="Path 158" d="M433.62,649.5s-5.676,24.525-.455,26.793a74.294,74.294,0,0,0,16.237,6.94c17.113,5.053,35.552-2.9,42.941-19.14a20.377,20.377,0,0,0,1.684-5.053c1.359-8.63,3.857-22.026,3.857-22.026s5-24.064,4.542-30.2a17.186,17.186,0,0,1,2.953-10.668l32-23.16L528.529,548.7s-22.93-32.464-43.592-2.5-37.461,64.933-37.461,64.933S434.069,631.341,433.62,649.5Z" transform="translate(-236.363 -373.187)" fill="#ffb9b9"/>
    <path id="Path_159" data-name="Path 159" d="M629.681,706.683c.275-4.093.275-13.133.275-13.133s-.225-6.586-5.671-14.306c-.281-.387-.561-.8-.9-1.23,4.363-3.453,12.751-10.028,14.862-11.145.82-.438,2.892-1.589,5.446-3.009a7.339,7.339,0,0,1-2.892-.736c-5.452-2.729-9.2-9.876-9.2-9.876l1.757-3.217-6.176-13.615c-1.465.359-2.375.752-2.375,1.168,0,1.157-11.274-21.9-21.044-42.143,2.246-1.808,3.728-2.931,3.728-2.931l7.041,6.361,13.829,29.572,2.521,5.39s.281.634.792,1.752c.882,1.943,2.448,5.34,4.43,9.455.938,1.931,1.96,4.031,3.049,6.176,1.9,3.807,4,7.86,6.142,11.729.152.264.292.561.444.8,4.75,8.529,9.663,16.047,13.071,17.967,0,0,3.3,2.847,7.265,6.176C656.188,693.393,634.83,705.106,629.681,706.683Z" transform="translate(-312.148 -399.065)" opacity="0.1"/>
    <path id="Path_160" data-name="Path 160" d="M587.566,592.52l7.035,6.356,16.35,34.962s19.09,42.912,27.927,47.91c0,0,16.12,13.846,19.752,16.12s13.155,9.309,13.155,9.309,28.382,8.169,15.665,12.257-29.965.91-29.965.91-19.09-4.087-24.525-7.265c0,0-3.178.225-5.446.225s-18.393-2.723-17.967-4.991.455-14.761.455-14.761-.225-6.58-5.676-14.3S584.8,655.864,584.8,655.864s-24.07-28.635-23.385-36.327S587.566,592.52,587.566,592.52Z" transform="translate(-293.569 -399.069)" fill="#ffb9b9"/>
    <path id="Path_161" data-name="Path 161" d="M587.566,592.52l7.035,6.356,16.35,34.962s19.09,42.912,27.927,47.91c0,0,16.12,13.846,19.752,16.12s13.155,9.309,13.155,9.309,28.382,8.169,15.665,12.257-29.965.91-29.965.91-19.09-4.087-24.525-7.265c0,0-3.178.225-5.446.225s-18.393-2.723-17.967-4.991.455-14.761.455-14.761-.225-6.58-5.676-14.3S584.8,655.864,584.8,655.864s-24.07-28.635-23.385-36.327S587.566,592.52,587.566,592.52Z" transform="translate(-293.569 -399.069)" fill="#ffb9b9"/>
    <path id="Path_162" data-name="Path 162" d="M728.938,811.448l-.618-.292a27.866,27.866,0,0,1,18.169-13.806l.152.663a27.136,27.136,0,0,0-17.7,13.436Z" transform="translate(-366.768 -488.895)" opacity="0.1"/>
    <path id="Path_163" data-name="Path 163" d="M707.1,803.99l-.606-.3c4.1-8.214,23.233-13.789,24.047-14.036l.191.657C730.532,790.374,711.072,796.023,707.1,803.99Z" transform="translate(-357.195 -485.518)" opacity="0.1"/>
    <path id="Path_164" data-name="Path 164" d="M724.89,803.112l-.64-.23c.679-1.92,6.738-18.82,10.033-19.292l.1.674C732.2,784.578,727.512,795.706,724.89,803.112Z" transform="translate(-364.983 -482.861)" opacity="0.1"/>
    <path id="Path_165" data-name="Path 165" d="M727.718,811.448l-.618-.292a27.865,27.865,0,0,1,18.169-13.806l.152.663A27.174,27.174,0,0,0,727.718,811.448Z" transform="translate(-366.233 -488.895)" fill="#535184"/>
    <path id="Path_166" data-name="Path 166" d="M705.882,803.99l-.612-.3c4.11-8.214,23.239-13.789,24.053-14.036l.185.657C729.312,790.374,709.857,796.023,705.882,803.99Z" transform="translate(-356.66 -485.518)" fill="#535184"/>
    <path id="Path_167" data-name="Path 167" d="M723.663,803.134l-.663-.2c.679-1.92,6.738-18.82,10.033-19.292l.1.674C730.973,784.6,726.285,795.728,723.663,803.134Z" transform="translate(-364.435 -482.883)" fill="#535184"/>
    <path id="Path_168" data-name="Path 168" d="M679.11,792.029c-.415-2.723,6.367-21.336,7.9-25.49-10.561,4.879-38.314,10.505-38.6,10.561l-.129-.668c.292-.056,29.353-5.951,39.19-10.864l.775-.387-.3.809c-2.392,6.417-8.517,23.581-8.158,25.94Z" transform="translate(-331.668 -474.787)" opacity="0.1"/>
    <path id="Path_169" data-name="Path 169" d="M677.916,792.029c-.416-2.723,6.367-21.336,7.9-25.49-10.567,4.879-38.314,10.505-38.6,10.561l-.135-.668c.292-.056,29.359-5.951,39.2-10.864l.775-.387-.3.809c-2.392,6.417-8.517,23.581-8.158,25.94Z" transform="translate(-331.141 -474.787)" fill="#535184"/>
    <path id="Path_170" data-name="Path 170" d="M569.692,584.564c-11.111,2.285-25.782,2.723-25.782,2.723l-1.864,2.15-1.538,1.769s-13.964,17.181-18.9,18.388-19.578,17.883-19.578,17.883-11.92,8-22.458,14.132-18.045-8.854-18.045-8.854l-3.751-34.4,23.149-4.43,1.364,10.05s15.16-6.305,17.366-6.816,28.264-22.986,30.319-23.5a18.658,18.658,0,0,0,3.622-1.808c2.577-1.544,5.407-3.47,5.407-3.47s14.284-1.381,26.552.562c1.123,4,2.364,8.568,3.5,13.02C569.254,582.846,569.473,583.716,569.692,584.564Z" transform="translate(-248.122 -388.278)" opacity="0.1"/>
    <path id="Path_171" data-name="Path 171" d="M569.029,579.862a184.527,184.527,0,0,1-25.12,2.588l-2.717,3.127-.685.792s-13.964,17.2-18.9,18.388-19.578,17.883-19.578,17.883-11.92,8-22.458,14.132-18.045-8.854-18.045-8.854l-3.751-34.4,23.149-4.452,1.364,10.045s15.16-6.3,17.366-6.811,28.264-22.986,30.319-23.5a13.187,13.187,0,0,0,2.588-1.218l.618-.354a30.185,30.185,0,0,1,14.643-4.155,106.393,106.393,0,0,1,16.889.893C566.076,568.56,567.609,574.293,569.029,579.862Z" transform="translate(-248.122 -386.142)" opacity="0.1"/>
    <path id="Path_172" data-name="Path 172" d="M616.424,771.07l5.963,3.15-2.9,4.172-5.019-2.381Z" transform="translate(-269.464 -457.888)" opacity="0.1"/>
    <path id="Path_173" data-name="Path 173" d="M616.424,769.86l5.963,3.15-2.9,4.172L614.47,774.8Z" transform="translate(-269.464 -457.357)" fill="#535184"/>
    <path id="Path_174" data-name="Path 174" d="M637.738,778.96l6.389,1.87-2.386,4.346L635.7,782.7Z" transform="translate(-278.775 -461.348)" opacity="0.1"/>
    <path id="Path_175" data-name="Path 175" d="M637.738,777.74l6.389,1.875-2.386,4.34-6.041-2.47Z" transform="translate(-278.775 -460.813)" fill="#535184"/>
    <path id="Path_176" data-name="Path 176" d="M489.188,636.59s-11.577,7.041-10.668,12.038Z" transform="translate(-257.199 -418.396)" opacity="0.1"/>
    <rect id="Rectangle_12" data-name="Rectangle 12" width="21.117" height="14.643" transform="matrix(0.702, -0.712, 0.712, 0.702, 319.647, 208.247)" opacity="0.1"/>
    <rect id="Rectangle_13" data-name="Rectangle 13" width="21.117" height="14.643" transform="matrix(0.702, -0.712, 0.712, 0.702, 320.616, 209.202)" fill="#504f60"/>
    <rect id="Rectangle_14" data-name="Rectangle 14" width="21.117" height="3.577" transform="matrix(0.702, -0.712, 0.712, 0.702, 328.499, 216.975)" opacity="0.1"/>
    <rect id="Rectangle_15" data-name="Rectangle 15" width="27.242" height="16.687" transform="matrix(0.702, -0.712, 0.712, 0.702, 327.199, 220.231)" fill="#504f60"/>
    <rect id="Rectangle_16" data-name="Rectangle 16" width="27.242" height="3.234" transform="matrix(0.702, -0.712, 0.712, 0.702, 336.784, 229.676)" opacity="0.1"/>
    <rect id="Rectangle_17" data-name="Rectangle 17" width="33.716" height="16.344" transform="matrix(0.702, -0.712, 0.712, 0.702, 335.244, 233.175)" fill="#504f60"/>
    <path id="Path_177" data-name="Path 177" d="M705.427,682.294c-.9.623-2.633-.163-3.369-.635h0c-3.5-4.705-3.717-19.87-3.717-19.87l.32-.326-.971-.955,23.66-24.019.971.954.241-.241a52.62,52.62,0,0,0,13.9,2.437c2.616.073,3.492-.382,4.531.343a11.645,11.645,0,0,1,1.617,5.39c0,3.116-9.343,3.846-14.755,4.222-4.587.309-2.353,8.282-1.561,10.724a4.284,4.284,0,0,1,.208,1.724c-.488,5.1-6.227,5.435-11.106,4.155-5.188-1.353-7.518,5.48-7.518,5.48S711.642,677.971,705.427,682.294Z" transform="translate(-353.336 -418.352)" opacity="0.1"/>
    <path id="Path_178" data-name="Path 178" d="M706.916,683.8c-1.325.921-3.369-.314-4.329-1.589h0c-3.5-4.705-3.717-19.87-3.717-19.87l24.216-24.592a52.619,52.619,0,0,0,13.9,2.437c2.616.073,3.492-.382,4.531.343,1.881,1.3,2.572,4.34,2.588,6.344,0,3.122-9.343,3.852-14.755,4.222-4.587.314-2.353,8.282-1.561,10.724a4.194,4.194,0,0,1,.213,1.724c-.483,5.109-6.221,5.435-11.1,4.155-5.188-1.348-7.518,5.48-7.518,5.48S713.131,679.484,706.916,683.8Z" transform="translate(-353.853 -418.904)" fill="#504f60"/>
    <path id="Path_179" data-name="Path 179" d="M706.916,683.8c-1.325.921-3.369-.314-4.329-1.589h0c-3.5-4.705-3.717-19.87-3.717-19.87l24.216-24.592a52.619,52.619,0,0,0,13.9,2.437c2.616.073,3.492-.382,4.531.343,1.881,1.3,2.572,4.34,2.588,6.344,0,3.122-9.343,3.852-14.755,4.222-4.587.314-2.353,8.282-1.561,10.724a4.194,4.194,0,0,1,.213,1.724c-.483,5.109-6.221,5.435-11.1,4.155-5.188-1.348-7.518,5.48-7.518,5.48S713.131,679.484,706.916,683.8Z" transform="translate(-353.853 -418.904)" opacity="0.1"/>
    <path id="Path_180" data-name="Path 180" d="M705.389,682.3c-1.3.943-2.347.561-3.184-.589h0c-3.082-4.284-3.335-19.365-3.335-19.365l24.216-24.592a47.286,47.286,0,0,0,13.043,1.6c2.476-.067,4.014.3,4.969.932,1.684,1.123,1.522,3.144,1.432,5.053-.14,2.965-9.051,4.138-14.2,4.772-4.3.522-2.706,7.771-2.055,10.157a4.25,4.25,0,0,1,.129,1.78c-.752,4.823-6.176,5.424-10.724,4.492-4.845-1.016-7.411,5.615-7.411,5.615S711.5,677.878,705.389,682.3Z" transform="translate(-353.853 -418.904)" fill="#504f60"/>
    <path id="Path_181" data-name="Path 181" d="M678.535,555.8h0a4.7,4.7,0,0,1-6.62.045l-.123-.124a4.683,4.683,0,0,1-.051-6.614h0a2.893,2.893,0,0,1,.314-.281,4.677,4.677,0,0,1,6.3.23l.129.123a4.688,4.688,0,0,1,.326,6.3A2.445,2.445,0,0,1,678.535,555.8Z" transform="translate(-341.368 -379.42)" fill="#504f60"/>
    <path id="Path_182" data-name="Path 182" d="M678.535,556.663h0a4.7,4.7,0,0,1-6.62.045l-.123-.123a4.683,4.683,0,0,1-.051-6.614h0a2.893,2.893,0,0,1,.314-.281l6.738,6.653A2.45,2.45,0,0,1,678.535,556.663Z" transform="translate(-341.368 -380.286)" opacity="0.1"/>
    <rect id="Rectangle_18" data-name="Rectangle 18" width="21.117" height="2.723" transform="matrix(0.702, -0.712, 0.712, 0.702, 320.617, 209.202)" opacity="0.1"/>
    <path id="Path_183" data-name="Path 183" d="M5.194,0h19.09a5.194,5.194,0,0,1,5.194,5.194V39.5H0V5.194A5.194,5.194,0,0,1,5.194,0Z" transform="matrix(0.712, 0.702, -0.702, 0.712, 325.449, 165.209)" fill="#504f60"/>
    <path id="Path_184" data-name="Path 184" d="M597.909,488.134a90.337,90.337,0,0,0-10.892,10.213,28.2,28.2,0,0,1-10.567-31.262,53.668,53.668,0,0,0,4.43-4.385S622.429,468.388,597.909,488.134Z" transform="translate(-299.618 -342.138)" opacity="0.1"/>
    <path id="Path_185" data-name="Path 185" d="M631.49,460.923v.629a27.576,27.576,0,0,1-.561,4.9c-.112.561-.225,1.061-.371,1.589a.2.2,0,0,1,0,.079,28.157,28.157,0,1,1-52.682-19.185c.359-.764.752-1.5,1.179-2.246a26.6,26.6,0,0,1,1.965-2.9,27.442,27.442,0,0,1,3.037-3.369h0a28.14,28.14,0,0,1,47.443,20.5Z" transform="translate(-299.6 -329.003)" fill="#ffb9b9"/>
    <path id="Path_186" data-name="Path 186" d="M543.892,584.863l-2.807,3.195-.6.736s-1.421,1.752-3.515,4.172c-4.492,5.171-12.021,13.408-15.39,14.222-4.935,1.19-19.578,17.877-19.578,17.877s-11.92,8.006-22.458,14.132-18.068-8.854-18.068-8.854l-3.751-34.4,23.172-4.441,1.364,10.045s15.159-6.3,17.366-6.81c1.858-.432,20.606-16.411,27.714-21.768a13.4,13.4,0,0,1,2.594-1.729,16.734,16.734,0,0,0,3.144-1.533l.079-.051a30,30,0,0,1,14.553-4.149c10.5-.2,27.427.629,33.126,7.6C589.359,583.5,543.892,584.863,543.892,584.863Z" transform="translate(-248.104 -387.213)" fill="#ffb9b9"/>
    <path id="Path_187" data-name="Path 187" d="M460.068,518.955a33.323,33.323,0,0,1-4.671.314c-4.043,0-12.431,2.807-14.817,24.581-3.15,29.061-7.72,43.569-7.72,43.569s17.029-5.9,26.793-4.312,24.749-5,24.749-5-.685-23.609-2.246-28.376C480.618,545.22,475.61,516.631,460.068,518.955Z" transform="translate(-237.198 -366.749)" opacity="0.1"/>
    <path id="Path_188" data-name="Path 188" d="M460.068,516.526a32.474,32.474,0,0,1-4.671.314c-4.043,0-12.431,2.807-14.817,24.586-3.178,29.061-7.72,43.592-7.72,43.592s17.029-5.907,26.793-4.318,24.749-5.014,24.749-5.014-.685-23.615-2.246-28.382C480.618,542.791,475.61,514.207,460.068,516.526Z" transform="translate(-237.198 -365.684)" fill="#787c9c"/>
    <path id="Path_189" data-name="Path 189" d="M501.4,580.59s-8,5.278-4.6,6.3S502.765,586.379,501.4,580.59Z" transform="translate(-264.869 -393.837)" opacity="0.1"/>
    <path id="Path_190" data-name="Path 190" d="M491.834,597.27s-21.8,6.811-14.115,9.708S491.834,597.27,491.834,597.27Z" transform="translate(-256.151 -401.152)" opacity="0.1"/>
    <path id="Path_191" data-name="Path 191" d="M587.47,459.708l9.657-.91c2.392-.225,5.081-.618,6.474-2.571s.887-4.632,1.74-6.85a17.8,17.8,0,0,1,2.751-4.031c5.822-7.709,4.026-20.055-3.751-25.782-1.881-1.387-4.02-2.4-5.878-3.818-4.615-3.52-7.08-9.113-10.735-13.627s-9.9-8.13-15.109-5.558c-3.751,1.858-5.536,6.255-8.916,8.725-4.733,3.464-11.229,2.4-17.08,1.8a81.292,81.292,0,0,0-18.175.174,4.542,4.542,0,0,0-2.566.881,4.008,4.008,0,0,0-1.05,2.847c-.264,5.019,2.3,9.915,1.785,14.912-.522,5.137-4.262,9.477-8.658,12.184-3.784,2.33-8.837,4.795-8.618,9.236a11.442,11.442,0,0,0,1.544,4.379,47.006,47.006,0,0,1,.152,40.65c-.87,1.791-2.094,3.711-4.048,4.082a11.875,11.875,0,0,0,13.565-5.929c2.122-4.29,1.724-10.061,5.5-13,2.622-2.033,6.322-1.864,9.343-3.24,4.132-1.875,6.384-6.294,8.332-10.393l5.339-11.263c1.623-3.414,3.678-7.54,7.26-9.27,3.829-1.853,8.568-.079,12.638.208,6.648.46,13.615.887,11.577,9.725C584.91,451.039,586.9,456.469,587.47,459.708Z" transform="translate(-269.707 -312.758)" opacity="0.1"/>
    <path id="Path_192" data-name="Path 192" d="M608.1,444.136a17.212,17.212,0,0,0-2.751,4.031,11.006,11.006,0,0,0-.561,2.5,9.3,9.3,0,0,1-1.2,4.346c-1.392,1.96-4.082,2.347-6.474,2.572l-9.657.9c-.561-3.234-2.56-8.663-6.923-6.434,2.038-8.837-4.93-9.264-11.577-9.73-4.065-.275-8.809-2.055-12.644-.2-3.571,1.729-5.615,5.85-7.254,9.264q-2.673,5.615-5.345,11.263c-1.9,4.1-4.149,8.517-8.31,10.393-3.021,1.381-6.738,1.207-9.343,3.245-3.779,2.936-3.369,8.7-5.5,13A11.864,11.864,0,0,1,507,495.212c1.954-.371,3.178-2.291,4.043-4.082a46.966,46.966,0,0,0-.146-40.65,11.323,11.323,0,0,1-1.55-4.379c-.208-4.441,4.834-6.9,8.624-9.236,4.4-2.7,8.13-7.041,8.658-12.178.511-5-2.049-9.893-1.786-14.912a4.034,4.034,0,0,1,1.05-2.847,4.492,4.492,0,0,1,2.566-.881,81.63,81.63,0,0,1,18.174-.18c5.845.6,12.352,1.684,17.08-1.8,3.369-2.465,5.165-6.867,8.916-8.719,5.2-2.572,11.459,1.039,15.109,5.553s6.114,10.106,10.735,13.632c1.858,1.415,4,2.431,5.878,3.818a17.933,17.933,0,0,1,6.6,10.219h0A18.531,18.531,0,0,1,608.1,444.136Z" transform="translate(-269.711 -312.227)" fill="#ffedba"/>
    <g id="Group_4" data-name="Group 4" transform="translate(237.284 95.268)" opacity="0.1">
      <path id="Path_193" data-name="Path 193" d="M541.225,430.3c.432-4.245-1.348-8.422-1.729-12.65a4.525,4.525,0,0,0-.741,2.5c-.23,4.368,1.684,8.641,1.842,12.975a12.608,12.608,0,0,0,.629-2.83Z" transform="translate(-520.912 -417.65)"/>
      <path id="Path_194" data-name="Path 194" d="M517.206,513.393a46.961,46.961,0,0,0-3.807-29.561,18.888,18.888,0,0,1-1.28-2.942,5.5,5.5,0,0,0-.943,3.329,11.409,11.409,0,0,0,1.544,4.379,46.731,46.731,0,0,1,4.486,24.794Z" transform="translate(-508.823 -445.383)"/>
      <path id="Path_195" data-name="Path 195" d="M608.772,470.435a17.48,17.48,0,0,0-2.746,4.031c-.853,2.218-.371,4.913-1.746,6.85s-4.082,2.347-6.468,2.571l-9.663.91c-.561-3.24-2.56-8.669-6.917-6.44,2.032-8.837-4.93-9.264-11.583-9.724-4.065-.286-8.8-2.061-12.639-.208-3.576,1.729-5.615,5.856-7.254,9.27q-2.667,5.615-5.345,11.263c-1.943,4.1-4.2,8.512-8.332,10.393-3.015,1.376-6.738,1.207-9.343,3.24-3.773,2.936-3.369,8.708-5.5,13a11.894,11.894,0,0,1-10.073,6.339c-.045.09-.079.185-.124.275-.87,1.791-2.094,3.711-4.048,4.082a11.875,11.875,0,0,0,13.565-5.929c2.122-4.29,1.724-10.061,5.5-13,2.622-2.032,6.322-1.864,9.343-3.24,4.16-1.875,6.406-6.294,8.332-10.393l5.34-11.263c1.623-3.414,3.678-7.54,7.26-9.27,3.829-1.853,8.568-.079,12.639.208,6.648.466,13.615.887,11.577,9.725,4.362-2.246,6.356,3.2,6.923,6.44l9.657-.91c2.392-.225,5.081-.612,6.474-2.572s.887-4.632,1.74-6.85a17.808,17.808,0,0,1,2.751-4.031,17.67,17.67,0,0,0,3.431-10.381A16.669,16.669,0,0,1,608.772,470.435Z" transform="translate(-506.99 -438.336)"/>
    </g>
    <path id="Path_196" data-name="Path 196" d="M641.255,463.179a17.21,17.21,0,0,0-2.751,4.031,11,11,0,0,0-.561,2.5,22.27,22.27,0,0,0-2.178-1.684,50.72,50.72,0,0,0-10.595-5.053l-16.232-6.305-11.51-4.458a31.539,31.539,0,0,0-4.413-1.471l-.472-.107h0a18.062,18.062,0,0,0-7.86.236c-.657.163-1.319.365-1.982.466a4.427,4.427,0,0,0-.045-.769c0-.415-.039-.831-.045-1.252a10.1,10.1,0,0,0,5.665-.505A17.194,17.194,0,0,0,592.082,446a32.318,32.318,0,0,1,9.91-5.929c5.558-2.027,11.6-2.28,17.518-2.117a39.753,39.753,0,0,1,8.86,1.022,45.984,45.984,0,0,1,10.106,4.492c2.066,1.123,4.228,2.336,5.615,4.183h0A18.406,18.406,0,0,1,641.255,463.179Z" transform="translate(-302.869 -331.27)" opacity="0.1"/>
    <path id="Path_197" data-name="Path 197" d="M647.415,455.031c-1.235.561,1.3,1.072.309,1.965-1.421,1.269.629,2.717-1.123,3.408-.416.163.651,3.616.225,3.633.915,2.762-6.811,2.807-6.811,5.9v.629a20.471,20.471,0,0,0-4.2-3.734,50.957,50.957,0,0,0-10.589-5.053l-16.249-6.288q-5.755-2.246-11.516-4.464a32,32,0,0,0-4.413-1.471l-.466-.1h0a18.062,18.062,0,0,0-7.86.23c-.651.163-1.314.365-1.982.472a5.037,5.037,0,0,0-.039-.769c0-.415-.039-.831-.051-1.258a10.121,10.121,0,0,0,5.671-.5,17.5,17.5,0,0,0,3.807-2.807,32.061,32.061,0,0,1,9.91-5.923c5.558-2.032,11.6-2.285,17.518-2.122a39.7,39.7,0,0,1,8.854,1.022,45.753,45.753,0,0,1,10.106,4.492c2.4,1.3,4.918,2.723,6.255,5.1a14.87,14.87,0,0,1,1.056,2.656C646.325,451.674,646.853,453.347,647.415,455.031Z" transform="translate(-302.886 -330.753)" fill="#ff849d"/>
    <path id="Path_198" data-name="Path 198" d="M667.92,474.742c-5.053-12.577-29.847-12.279-30.1-12.274v-.679c1.039,0,25.5-.309,30.746,12.7Z" transform="translate(-327.08 -341.738)" opacity="0.1"/>
    <path id="Path_199" data-name="Path 199" d="M677.417,466.46c-3.285-8.764-21.981-9.545-22.167-9.545v-.685c.792.028,19.337.8,22.784,9.988Z" transform="translate(-334.724 -339.301)" opacity="0.1"/>
    <path id="Path_200" data-name="Path 200" d="M319.443,813.867s-22.335-1.347-19.7,14.306a3.818,3.818,0,0,0,1.982,4.02s.039-1.162,2.291-.769a10.165,10.165,0,0,0,2.426.118,5.013,5.013,0,0,0,2.97-1.224h0s6.277-2.594,8.719-12.858c0,0,1.808-2.246,1.735-2.807l-3.79,1.606s1.286,2.718.275,4.98c0,0-.124-4.879-.848-4.767-.146,0-1.96.943-1.96.943s2.246,4.739.561,8.181c0,0,.634-5.839-1.235-7.86l-2.656,1.55s2.588,4.89.837,8.882c0,0,.449-6.12-1.392-8.506l-2.4,1.875s2.431,4.823.949,8.13c0,0-.2-7.125-1.471-7.664a14.575,14.575,0,0,0-2.426,2.616s1.684,3.5.634,5.351c0,0-.634-4.75-1.157-4.772,0,0-2.094,3.144-2.313,5.3a11.483,11.483,0,0,1,1.808-5.615,6.323,6.323,0,0,0-3.212,1.684s.326-2.246,3.728-2.42a14.519,14.519,0,0,1,2.2-2.532,13.818,13.818,0,0,0-5.435.629s1.808-2.1,6.053-1.123l2.375-1.937s-4.452-.612-6.339.062c0,0,2.173-1.853,6.979-.5l2.583-1.55a23.585,23.585,0,0,0-6.058-.522s2.386-1.286,6.816.107l1.847-.825s-2.779-.561-3.593-.634-.859-.309-.859-.309a9.663,9.663,0,0,1,5.227.561S319.51,814.114,319.443,813.867Z" transform="translate(-178.725 -496.126)" fill="#6c63ff"/>
    <ellipse id="Ellipse_14" data-name="Ellipse 14" cx="15.805" cy="2.673" rx="15.805" ry="2.673" transform="translate(109.529 334.76)" fill="#6c63ff" opacity="0.1"/>
    <path id="Path_201" data-name="Path 201" d="M268.339,754.055s-15.2-.915-13.413,9.736a2.605,2.605,0,0,0,1.353,2.74s.028-.792,1.561-.522a6.736,6.736,0,0,0,1.651.079,3.413,3.413,0,0,0,2.021-.831h0s4.273-1.769,5.935-8.753c0,0,1.23-1.522,1.179-1.915l-2.566,1.123a4.579,4.579,0,0,1,.191,3.369s-.084-3.324-.561-3.245c-.1,0-1.336.64-1.336.64s1.51,3.228.371,5.57c0,0,.432-3.969-.837-5.334l-1.808,1.056s1.763,3.329.561,6.047c0,0,.309-4.166-.949-5.789l-1.634,1.275s1.656,3.279.646,5.536c0,0-.135-4.851-1-5.222a9.938,9.938,0,0,0-1.651,1.786s1.123,2.381.427,3.638c0,0-.427-3.234-.786-3.245a10.687,10.687,0,0,0-1.572,3.6,7.793,7.793,0,0,1,1.23-3.812,4.267,4.267,0,0,0-2.184,1.123s.219-1.516,2.538-1.651a10.059,10.059,0,0,1,1.493-1.724,9.418,9.418,0,0,0-3.7.427s1.23-1.426,4.121-.78l1.617-1.314s-3.032-.415-4.318.039c0,0,1.482-1.263,4.75-.343l1.763-1.05a15.962,15.962,0,0,0-4.127-.354s1.623-.876,4.638.073l1.258-.561s-1.892-.371-2.442-.432-.561-.208-.561-.208a6.57,6.57,0,0,1,3.554.393A15.867,15.867,0,0,0,268.339,754.055Z" transform="translate(-159.102 -469.9)" fill="#6c63ff"/>
    <ellipse id="Ellipse_15" data-name="Ellipse 15" cx="10.758" cy="1.819" rx="10.758" ry="1.819" transform="translate(88.008 295.738)" fill="#6c63ff" opacity="0.1"/>
    <ellipse id="Ellipse_16" data-name="Ellipse 16" cx="31.605" cy="4.34" rx="31.605" ry="4.34" transform="translate(428.096 310.785)" fill="#6c63ff" opacity="0.1"/>
    <path id="Path_202" data-name="Path 202" d="M897.681,730s4.239,5.536-1.954,13.9-11.291,15.423-9.23,20.634c0,0,9.343-15.53,16.939-15.721S906.042,739.309,897.681,730Z" transform="translate(-435.931 -459.359)" fill="#6c63ff"/>
    <path id="Path_203" data-name="Path 203" d="M897.869,730a6.7,6.7,0,0,1,.865,1.735c7.417,8.714,11.37,16.844,4.239,17.052-6.636.185-14.6,12.06-16.513,15.058.062.23.14.46.225.685,0,0,9.343-15.53,16.939-15.721S906.229,739.309,897.869,730Z" transform="translate(-436.119 -459.359)" opacity="0.1"/>
    <path id="Path_204" data-name="Path 204" d="M920.037,741.545c0,1.948-.219,3.532-.488,3.532s-.489-1.583-.489-3.532.275-1.033.561-1.033S920.037,739.6,920.037,741.545Z" transform="translate(-450.415 -463.875)" fill="#ffd037"/>
    <path id="Path_205" data-name="Path 205" d="M923.008,745.62c-1.684.938-3.206,1.5-3.335,1.263s1.151-1.185,2.863-2.117,1.039-.258,1.168,0S924.715,744.688,923.008,745.62Z" transform="translate(-450.68 -465.626)" fill="#ffd037"/>
    <path id="Path_206" data-name="Path 206" d="M859.573,730s-4.239,5.536,1.954,13.9,11.291,15.423,9.225,20.634c0,0-9.337-15.53-16.934-15.721S851.179,739.309,859.573,730Z" transform="translate(-420.157 -459.359)" fill="#6c63ff"/>
    <path id="Path_207" data-name="Path 207" d="M859.557,730a6.8,6.8,0,0,0-.9,1.684c-7.411,8.714-11.364,16.844-4.233,17.052,6.636.185,14.6,12.06,16.513,15.058a6.152,6.152,0,0,1-.23.685s-9.337-15.53-16.934-15.721S851.163,739.309,859.557,730Z" transform="translate(-420.142 -459.359)" opacity="0.1"/>
    <path id="Path_208" data-name="Path 208" d="M852.92,741.545c0,1.948.219,3.532.494,3.532s.489-1.583.489-3.532-.275-1.033-.562-1.033S852.92,739.6,852.92,741.545Z" transform="translate(-421.41 -463.875)" fill="#ffd037"/>
    <path id="Path_209" data-name="Path 209" d="M847.3,745.62c1.684.938,3.206,1.5,3.335,1.263s-1.157-1.185-2.863-2.117-1.039-.258-1.168,0S845.592,744.688,847.3,745.62Z" transform="translate(-418.49 -465.626)" fill="#ffd037"/>
    <path id="Path_210" data-name="Path 210" d="M855.33,785.16s11.836-.365,15.406-2.908,18.214-5.575,19.09-1.5,17.793,20.269,4.43,20.375-31.055-2.083-34.62-4.267S855.33,785.16,855.33,785.16Z" transform="translate(-422.467 -480.742)" fill="#a8a8a8"/>
    <path id="Path_211" data-name="Path 211" d="M894.5,804.694c-13.368.112-31.06-2.077-34.62-4.25-2.712-1.651-3.8-7.58-4.155-10.314h-.393s.747,9.545,4.312,11.718,21.251,4.357,34.62,4.25c3.857-.034,5.188-1.4,5.115-3.436C898.843,803.908,897.367,804.655,894.5,804.694Z" transform="translate(-422.467 -485.729)" opacity="0.2"/>
  </g>
</svg>
