<?xml version="1.0" encoding="iso-8859-1"?>
<!-- Generator: Adobe Illustrator 19.0.0, SVG Export Plug-In . SVG Version: 6.00 Build 0)  -->
<svg version="1.1" id="Layer_1" xmlns="http://www.w3.org/2000/svg" xmlns:xlink="http://www.w3.org/1999/xlink" x="0px" y="0px"
	 viewBox="0 0 512 512" style="enable-background:new 0 0 512 512;" xml:space="preserve">
<path style="fill:#CFF09E;" d="M366.53,160.197c-16.784-21.704-70.864-80.688-93.294-135.7c-2.515-6.169-8.457-10.241-15.119-10.241
	l0,0h-4.237l0,0c-6.662,0-12.604,4.072-15.119,10.241c-22.428,55.012-76.509,113.996-93.294,135.7
	c-3.175,4.104-4.508,9.565-3.634,14.89c4.836,29.418,52.175,120.34,57.57,143.602h54.476h4.237h54.476
	c5.395-23.262,52.735-114.184,57.57-143.602C371.038,169.762,369.704,164.302,366.53,160.197z"/>
<path style="fill:#507C5C;" d="M312.593,332.946H199.406c-6.632,0-12.389-4.574-13.889-11.036
	c-2.044-8.816-12.791-32.745-23.183-55.884c-15.507-34.529-31.543-70.235-34.567-88.628c-1.517-9.234,0.824-18.682,6.423-25.923
	c3.246-4.197,7.758-9.647,12.982-15.956C169.96,107.998,208.1,61.938,225.56,19.114C230.296,7.503,241.413,0,253.882,0h4.236
	c12.469,0,23.585,7.502,28.321,19.114c17.46,42.828,55.601,88.89,78.39,116.411c5.222,6.307,9.733,11.756,12.979,15.952
	c5.6,7.241,7.941,16.689,6.425,25.921c-3.024,18.394-19.06,54.1-34.568,88.629c-10.392,23.14-21.138,47.07-23.184,55.884
	C324.982,328.372,319.226,332.946,312.593,332.946z M209.815,304.432h92.37c4.612-12.554,12.591-30.319,21.47-50.089
	c13.376-29.781,30.022-66.845,32.442-81.569c0.23-1.406-0.093-2.884-0.845-3.856c-2.954-3.821-7.325-9.099-12.386-15.209
	c-23.831-28.781-63.718-76.953-82.831-123.829c-0.338-0.83-1.092-1.366-1.919-1.366h-4.236c-0.827,0-1.578,0.536-1.918,1.367
	c-19.111,46.874-58.998,95.044-82.829,123.824c-5.061,6.113-9.434,11.392-12.388,15.213c-0.751,0.971-1.074,2.449-0.843,3.856
	c2.421,14.724,19.065,51.789,32.441,81.569C197.223,274.113,205.201,291.878,209.815,304.432z"/>
<circle style="fill:#FFFFFF;" cx="256.006" cy="167.33" r="31.379"/>
<g>
	<path style="fill:#507C5C;" d="M256,212.966c-25.163,0-45.635-20.471-45.635-45.635s20.471-45.635,45.635-45.635
		c25.164,0,45.635,20.471,45.635,45.635S281.163,212.966,256,212.966z M256,150.209c-9.441,0-17.122,7.681-17.122,17.122
		s7.681,17.122,17.122,17.122c9.441,0,17.122-7.681,17.122-17.122S265.441,150.209,256,150.209z"/>
	<path style="fill:#507C5C;" d="M338.232,512H173.767c-8.965,0-17.427-4.354-22.639-11.648c-5.212-7.294-6.589-16.712-3.685-25.193
		l35.83-104.641c2.552-7.449,10.661-11.415,18.106-8.87c7.449,2.551,11.421,10.658,8.87,18.106l-35.519,103.732h162.544
		l-14.529-42.429c-2.551-7.449,1.42-15.555,8.87-18.107c7.451-2.548,15.555,1.421,18.106,8.869l14.84,43.339
		c2.904,8.481,1.525,17.899-3.685,25.193C355.661,507.646,347.197,512,338.232,512z"/>
	<path style="fill:#507C5C;" d="M340.431,389.393h-25.191c-7.872,0-14.257-6.383-14.257-14.257s6.384-14.257,14.257-14.257h25.191
		c7.582,0,13.752-6.17,13.752-13.752c0-7.582-6.169-13.752-13.752-13.752H171.569c-7.583,0-13.752,6.169-13.752,13.752
		c0,7.583,6.169,13.752,13.752,13.752h86.332c7.872,0,14.257,6.383,14.257,14.257s-6.384,14.257-14.257,14.257h-86.332
		c-23.305,0-42.265-18.96-42.265-42.265s18.96-42.265,42.265-42.265h168.862c23.305,0,42.265,18.96,42.265,42.265
		C382.696,370.433,363.736,389.393,340.431,389.393z"/>
</g>
<g>
</g>
<g>
</g>
<g>
</g>
<g>
</g>
<g>
</g>
<g>
</g>
<g>
</g>
<g>
</g>
<g>
</g>
<g>
</g>
<g>
</g>
<g>
</g>
<g>
</g>
<g>
</g>
<g>
</g>
</svg>
